<?xml version="1.0" encoding="UTF-8"?>
<svg id="Layer_1" data-name="Layer 1" xmlns="http://www.w3.org/2000/svg" viewBox="0 0 366.16 177.23">
  <defs>
    <style>
      .cls-1 {
        fill: #0b66c2;
      }
    </style>
  </defs>
  <g>
    <path d="M1.31,35.83H10.56V102.04H1.31V35.83Zm5.46,57.61H24.72c4.71,0,8.14-.9,10.29-2.69,2.16-1.79,3.23-4.31,3.23-7.56v-.14c0-2.25-.39-4.17-1.16-5.78-.77-1.61-2-2.85-3.67-3.71-1.67-.87-3.81-1.3-6.42-1.3H6.78v-8.38H27c3.43,0,6.02-.8,7.76-2.41,1.75-1.61,2.62-3.99,2.62-7.15s-.97-5.78-2.91-7.42c-1.94-1.64-4.86-2.46-8.74-2.46H6.78v-8.61H27.41c4.28,0,7.86,.73,10.75,2.19,2.88,1.46,5.04,3.52,6.47,6.19,1.43,2.67,2.14,5.86,2.14,9.56,0,2.28-.44,4.41-1.32,6.4-.88,1.99-2.22,3.69-4.03,5.1-1.81,1.41-4.05,2.36-6.72,2.85,2.67,.39,4.98,1.34,6.92,2.85,1.94,1.5,3.43,3.38,4.46,5.62,1.03,2.25,1.55,4.68,1.55,7.29v.14c0,3.58-.79,6.74-2.37,9.47-1.58,2.73-3.84,4.84-6.79,6.33-2.95,1.49-6.38,2.23-10.29,2.23H6.78v-8.61Z"/>
    <path d="M68.4,83.51c0,3.31,.84,5.87,2.53,7.67,1.68,1.81,4.06,2.71,7.13,2.71s5.39-.8,7.06-2.41c1.67-1.61,2.5-3.9,2.5-6.88l.64,9.88c-.97,2.34-2.55,4.3-4.74,5.87-2.19,1.58-4.87,2.37-8.06,2.37-5.22,0-9.25-1.68-12.09-5.03-2.84-3.35-4.26-8.08-4.26-14.19v-28.73h9.29v28.73Zm19.22-28.73h9.24v47.27h-9.24V54.77Z"/>
    <path d="M109.49,35.83h9.29v9.29h-9.29v-9.29Zm0,18.94h9.29v47.27h-9.29V54.77Z"/>
    <path d="M140.69,89.84c0,1.15,.25,2.04,.75,2.66,.5,.62,1.21,.93,2.12,.93h4.37v8.83h-5.46c-3.52,0-6.25-1.09-8.17-3.28-1.93-2.19-2.89-5.27-2.89-9.24V35.83h9.29v54.01Z"/>
    <path d="M163.04,100.61c-2.44-1.5-4.3-3.7-5.58-6.58-1.27-2.88-1.91-6.34-1.91-10.38v-10.43c0-4.07,.62-7.54,1.87-10.43,1.24-2.88,3.06-5.08,5.44-6.58,2.38-1.5,5.24-2.25,8.58-2.25,2.79,0,5.35,.73,7.67,2.19,2.32,1.46,4.2,3.51,5.62,6.15l-.96,9.65c0-2-.37-3.72-1.09-5.15-.73-1.43-1.78-2.51-3.16-3.26-1.38-.74-3.06-1.12-5.03-1.12-3.07,0-5.44,.96-7.13,2.87s-2.53,4.6-2.53,8.06v10.29c0,3.43,.84,6.08,2.53,7.95s4.06,2.8,7.13,2.8c1.97,0,3.65-.39,5.03-1.16,1.38-.77,2.44-1.89,3.16-3.35s1.09-3.2,1.09-5.24l.64,9.97c-.94,2.34-2.48,4.3-4.62,5.87-2.14,1.58-4.78,2.37-7.9,2.37-3.46,0-6.41-.75-8.86-2.25Zm20.74-64.78h9.29V102.04h-9.29V35.83Z"/>
    <path d="M239.93,99.83c-3.48-1.93-6.12-4.74-7.95-8.42-1.82-3.69-2.73-8.13-2.73-13.32V35.83h9.29v42.58c0,4.83,1.21,8.56,3.64,11.2,2.43,2.64,5.86,3.96,10.29,3.96s7.92-1.32,10.36-3.96c2.44-2.64,3.67-6.38,3.67-11.2V35.83h9.29v42.26c0,5.19-.91,9.63-2.73,13.32-1.82,3.69-4.48,6.5-7.97,8.42-3.49,1.93-7.7,2.89-12.61,2.89s-9.07-.96-12.55-2.89Z"/>
    <path d="M288.87,54.77h9.29V121.26h-9.29V54.77Zm13.48,45.83c-2.19-1.41-3.8-3.41-4.83-5.99l.64-9.88c0,2.03,.36,3.76,1.09,5.19,.73,1.43,1.78,2.52,3.16,3.28,1.38,.76,3.06,1.14,5.03,1.14,3.07,0,5.44-.93,7.13-2.8,1.69-1.87,2.53-4.5,2.53-7.9v-10.25c0-3.46-.84-6.15-2.53-8.06-1.68-1.91-4.06-2.87-7.13-2.87-1.97,0-3.65,.36-5.03,1.09-1.38,.73-2.44,1.8-3.16,3.21s-1.09,3.1-1.09,5.08l-.96-9.11c1.43-2.76,3.29-4.9,5.6-6.4,2.31-1.5,4.87-2.25,7.7-2.25,3.34,0,6.2,.75,8.58,2.25,2.38,1.5,4.2,3.7,5.44,6.58,1.24,2.88,1.87,6.36,1.87,10.43v10.29c0,4.01-.64,7.44-1.91,10.29-1.27,2.85-3.14,5.03-5.6,6.53-2.46,1.5-5.4,2.25-8.83,2.25-2.95,0-5.51-.71-7.7-2.12Z"/>
    <path d="M7.73,161.64c-2.45-1.44-4.36-3.47-5.71-6.11s-2.03-5.69-2.03-9.16v-12.83c0-3.47,.68-6.53,2.03-9.16s3.25-4.68,5.71-6.12c2.45-1.45,5.3-2.17,8.53-2.17,2.68,0,5.14,.57,7.39,1.72s4.13,2.77,5.64,4.87c1.51,2.1,2.53,4.53,3.07,7.3h-6.72c-.41-1.46-1.09-2.76-2.04-3.91s-2.07-2.03-3.36-2.65c-1.29-.62-2.61-.93-3.99-.93-1.91,0-3.58,.46-5.01,1.38-1.44,.92-2.55,2.21-3.34,3.87-.79,1.66-1.19,3.6-1.19,5.8v12.83c0,2.19,.4,4.11,1.19,5.79,.79,1.67,1.91,2.96,3.34,3.87,1.44,.91,3.11,1.37,5.01,1.37,1.39,0,2.73-.29,4-.87,1.27-.58,2.39-1.44,3.34-2.57,.95-1.14,1.63-2.49,2.04-4.05h6.72c-.54,2.76-1.56,5.2-3.09,7.3-1.52,2.1-3.41,3.72-5.66,4.87s-4.7,1.72-7.36,1.72c-3.24,0-6.08-.72-8.53-2.15Z"/>
    <path d="M42.86,162.09c-2.06-1.14-3.63-2.79-4.71-4.97-1.08-2.17-1.62-4.79-1.62-7.86v-5.43c0-3.02,.54-5.61,1.62-7.76,1.08-2.15,2.65-3.79,4.71-4.92,2.06-1.12,4.53-1.69,7.43-1.69s5.37,.56,7.43,1.69c2.06,1.12,3.63,2.76,4.71,4.92,1.08,2.15,1.62,4.74,1.62,7.76v5.53c0,3.04-.54,5.64-1.62,7.79-1.08,2.15-2.65,3.8-4.71,4.93-2.06,1.14-4.53,1.7-7.43,1.7s-5.37-.57-7.43-1.7Zm12.75-6.69c1.25-1.44,1.88-3.45,1.88-6.04v-5.53c0-2.59-.63-4.6-1.88-6.01-1.25-1.41-3.03-2.12-5.32-2.12s-4.07,.71-5.32,2.12c-1.25,1.41-1.88,3.42-1.88,6.01v5.53c0,2.59,.63,4.61,1.88,6.04,1.25,1.44,3.03,2.15,5.32,2.15s4.07-.72,5.32-2.15Z"/>
    <path d="M69.81,129.94h6.56v33.37h-6.56v-33.37Zm20.25,13.15c0-2.36-.61-4.18-1.83-5.46s-2.94-1.93-5.14-1.93-3.8,.57-4.97,1.7c-1.17,1.14-1.75,2.73-1.75,4.79l-.68-6.43c1.03-2.01,2.37-3.57,4.03-4.66,1.66-1.09,3.5-1.64,5.51-1.64,3.62,0,6.42,1.18,8.41,3.55,1.98,2.37,2.97,5.72,2.97,10.04v20.25h-6.56v-20.22Z"/>
    <path d="M109.28,163.21c-1.73-.39-3.34-.96-4.84-1.74-1.5-.77-2.88-1.74-4.15-2.89l3.89-4.79c1.8,1.37,3.59,2.4,5.37,3.09,1.78,.69,3.54,1.03,5.27,1.03,2.59,0,4.54-.4,5.83-1.21,1.3-.8,1.94-2.01,1.94-3.62,0-1.07-.35-1.88-1.06-2.41-.71-.54-1.59-.89-2.64-1.08-1.05-.18-2.53-.35-4.44-.5-.17,0-.35,0-.55-.02-.19-.01-.38-.03-.55-.05-.09,0-.17,0-.26-.02-.09-.01-.17-.02-.26-.02-2.16-.17-4-.49-5.5-.95-1.5-.46-2.75-1.32-3.74-2.59s-1.49-3.08-1.49-5.43,.48-4.32,1.45-5.88,2.4-2.74,4.31-3.52c1.91-.78,4.3-1.17,7.17-1.17,1.74,0,3.39,.16,4.97,.48,1.58,.32,3.08,.8,4.52,1.43,1.44,.63,2.82,1.43,4.15,2.39l-3.95,4.79c-1.67-1.07-3.32-1.88-4.93-2.41-1.62-.54-3.2-.8-4.74-.8-2.23,0-3.9,.38-5.01,1.14-1.11,.76-1.67,1.9-1.67,3.42,0,.9,.32,1.58,.95,2.02,.63,.45,1.43,.75,2.39,.9s2.34,.28,4.11,.39c.13,.02,.26,.03,.4,.03s.28,.01,.43,.03h.19c.06,0,.13,.01,.19,.03,2.34,.15,4.32,.46,5.96,.93s3.02,1.4,4.13,2.8c1.11,1.39,1.67,3.41,1.67,6.04,0,2.4-.51,4.39-1.54,5.96s-2.58,2.76-4.65,3.55c-2.07,.79-4.67,1.19-7.79,1.19-1.97,0-3.82-.19-5.54-.58Z"/>
    <path d="M140.17,150.22c0,2.34,.59,4.14,1.78,5.42,1.19,1.28,2.87,1.91,5.03,1.91s3.8-.57,4.98-1.7c1.18-1.14,1.77-2.75,1.77-4.85l.45,6.98c-.69,1.65-1.8,3.03-3.34,4.15-1.54,1.11-3.44,1.67-5.69,1.67-3.69,0-6.53-1.18-8.53-3.55-2-2.37-3.01-5.71-3.01-10.01v-20.28h6.56v20.28Zm13.56-20.28h6.53v33.37h-6.53v-33.37Z"/>
    <path d="M173.23,154.69c0,.81,.18,1.44,.53,1.88,.35,.44,.85,.66,1.49,.66h3.09v6.24h-3.86c-2.49,0-4.41-.77-5.77-2.31-1.36-1.54-2.04-3.72-2.04-6.53v-38.06h6.56v38.12Z"/>
    <path d="M179.6,129.94h15.04v5.91h-15.04v-5.91Zm5.32,31.29c-1.25-1.49-1.88-3.69-1.88-6.61v-34.39h6.56v34.46c0,.81,.16,1.44,.48,1.88,.32,.44,.79,.66,1.41,.66h3.15v6.24h-3.79c-2.7,0-4.68-.74-5.93-2.23Z"/>
    <path d="M201.54,161.23c-2.04-1.7-3.05-4.29-3.05-7.76s.93-5.77,2.8-7.43c1.86-1.65,4.68-2.47,8.45-2.47h9.48l.45,5.27h-9.9c-1.72,0-3,.38-3.84,1.14s-1.27,1.92-1.27,3.49c0,1.69,.56,2.95,1.69,3.76,1.13,.81,2.83,1.22,5.13,1.22,2.51,0,4.38-.27,5.61-.8,1.23-.54,1.85-1.37,1.85-2.51l.68,4.69c-.58,.9-1.29,1.64-2.14,2.22-.85,.58-1.83,1.01-2.94,1.3-1.11,.29-2.37,.43-3.76,.43-4.11,0-7.19-.85-9.23-2.56Zm17.39-19.08c0-2.19-.58-3.88-1.75-5.09-1.17-1.21-2.82-1.82-4.97-1.82-1.33,0-2.63,.2-3.91,.61s-2.41,.97-3.39,1.7l-4.79-3.28c1.26-1.52,2.93-2.71,5-3.55,2.07-.85,4.37-1.27,6.89-1.27,2.76,0,5.13,.49,7.1,1.46,1.97,.98,3.47,2.39,4.5,4.24,1.03,1.85,1.54,4.09,1.54,6.7v21.44h-6.24v-21.15Z"/>
    <path d="M231.58,129.94h6.56v33.37h-6.56v-33.37Zm20.25,13.15c0-2.36-.61-4.18-1.83-5.46s-2.94-1.93-5.14-1.93-3.8,.57-4.97,1.7c-1.17,1.14-1.75,2.73-1.75,4.79l-.68-6.43c1.03-2.01,2.37-3.57,4.03-4.66,1.66-1.09,3.5-1.64,5.51-1.64,3.62,0,6.42,1.18,8.41,3.55,1.98,2.37,2.97,5.72,2.97,10.04v20.25h-6.56v-20.22Z"/>
    <path d="M270.47,162.09c-2.15-1.14-3.8-2.79-4.93-4.95s-1.7-4.78-1.7-7.84v-5.5c0-3.02,.57-5.6,1.7-7.75s2.78-3.78,4.93-4.9c2.15-1.12,4.75-1.69,7.79-1.69,1.74,0,3.37,.21,4.9,.63,1.53,.42,2.91,1.02,4.13,1.82,1.22,.79,2.24,1.76,3.05,2.89l-4.73,4.24c-.94-1.07-2.05-1.9-3.31-2.47-1.26-.58-2.58-.87-3.95-.87-2.53,0-4.49,.71-5.88,2.12-1.39,1.41-2.09,3.41-2.09,5.98v5.5c0,2.64,.69,4.67,2.07,6.11,1.38,1.44,3.35,2.15,5.9,2.15,1.39,0,2.72-.31,3.99-.93,1.26-.62,2.36-1.5,3.28-2.64l4.73,4.56c-.84,1.11-1.86,2.06-3.09,2.84-1.22,.78-2.6,1.38-4.13,1.78-1.53,.41-3.16,.61-4.87,.61-3.04,0-5.64-.57-7.79-1.7Z"/>
    <path d="M289.21,129.94h6.69l10.25,28.99-3.63,7.1-13.31-36.1Zm29.54,0l-14.21,41.18c-.51,1.52-1.19,2.73-2.03,3.62-.84,.89-1.86,1.53-3.09,1.91-1.22,.39-2.72,.58-4.5,.58h-1.32v-6.3h1.32c1.22,0,2.19-.25,2.91-.74,.72-.49,1.34-1.34,1.88-2.54l12.34-37.71h6.69Z"/>
  </g>
  <path class="cls-1" d="M366.16,.4V60.65c-7.48,7.48-11.67,11.67-19.15,19.15h0V19.15h-60.65c7.48-7.48,11.67-11.67,19.15-19.15h60.25V.4h.4Z"/>
</svg>